<?xml version="1.0" encoding="UTF-8"?>
<svg xmlns="http://www.w3.org/2000/svg" xmlns:xlink="http://www.w3.org/1999/xlink" width="360.92pt" height="94.69pt" viewBox="0 0 360.92 94.69" version="1.1">
<defs>
<clipPath id="clip1">
  <path d="M 336 12 L 360.921875 12 L 360.921875 41 L 336 41 Z M 336 12 "/>
</clipPath>
<clipPath id="clip2">
  <path d="M 0 56 L 24 56 L 24 94.691406 L 0 94.691406 Z M 0 56 "/>
</clipPath>
<clipPath id="clip3">
  <path d="M 57 66 L 84 66 L 84 94.691406 L 57 94.691406 Z M 57 66 "/>
</clipPath>
<clipPath id="clip4">
  <path d="M 87 54 L 116 54 L 116 94.691406 L 87 94.691406 Z M 87 54 "/>
</clipPath>
<clipPath id="clip5">
  <path d="M 119 66 L 149 66 L 149 94.691406 L 119 94.691406 Z M 119 66 "/>
</clipPath>
<clipPath id="clip6">
  <path d="M 152 66 L 179 66 L 179 94.691406 L 152 94.691406 Z M 152 66 "/>
</clipPath>
<clipPath id="clip7">
  <path d="M 24 66 L 54 66 L 54 94.691406 L 24 94.691406 Z M 24 66 "/>
</clipPath>
</defs>
<g id="surface1">
<path style=" stroke:none;fill-rule:nonzero;fill:rgb(6.045532%,22.052002%,42.024231%);fill-opacity:1;" d="M 0 39.839844 L 7.441406 39.839844 L 7.441406 1.898438 L 0 1.898438 Z M 0 39.839844 "/>
<path style=" stroke:none;fill-rule:nonzero;fill:rgb(6.045532%,22.052002%,42.024231%);fill-opacity:1;" d="M 18.355469 15.9375 L 18.464844 15.9375 C 20.257812 13.496094 23.683594 12.089844 26.800781 12.089844 C 30.121094 12.089844 32.96875 13.445312 34.554688 15.9375 C 36.773438 13.769531 40.199219 12.144531 43.316406 12.089844 C 49.269531 12.035156 52.390625 15.777344 52.496094 22.007812 L 52.496094 39.785156 L 45.472656 39.785156 L 45.472656 23.308594 C 45.472656 20.167969 44.417969 16.914062 40.941406 16.914062 C 37.5625 16.914062 35.453125 18.972656 35.453125 23.6875 L 35.453125 39.839844 L 28.433594 39.839844 L 28.433594 23.308594 C 28.433594 19.515625 26.800781 16.914062 23.792969 16.914062 C 20.464844 16.914062 18.410156 19.242188 18.410156 23.851562 L 18.410156 39.839844 L 11.394531 39.839844 L 11.394531 12.738281 L 18.355469 12.738281 L 18.355469 15.9375 "/>
<path style=" stroke:none;fill-rule:nonzero;fill:rgb(6.045532%,22.052002%,42.024231%);fill-opacity:1;" d="M 63.386719 12.738281 L 56.375 12.738281 L 56.375 53.394531 L 63.386719 53.394531 L 63.386719 36.480469 C 65.34375 38.867188 68.082031 40.488281 71.296875 40.488281 C 78.84375 40.488281 83.59375 32.851562 83.59375 25.695312 C 83.59375 19.730469 80.21875 12.089844 71.9375 12.089844 C 68.769531 12.089844 65.34375 13.714844 63.492188 16.476562 L 63.386719 16.476562 Z M 70.140625 16.425781 C 74.148438 16.425781 76.152344 21.089844 76.152344 25.75 C 76.152344 30.519531 74.574219 36.15625 69.878906 36.15625 C 66.078125 36.15625 63.386719 32.308594 63.386719 26.617188 C 63.386719 20.382812 65.710938 16.425781 70.140625 16.425781 "/>
<path style=" stroke:none;fill-rule:nonzero;fill:rgb(6.045532%,22.052002%,42.024231%);fill-opacity:1;" d="M 110.640625 26.9375 C 111.160156 18.863281 107.730469 12.089844 99.503906 12.089844 C 91.960938 12.089844 86.050781 17.402344 86.050781 25.75 C 86.050781 34.695312 92.011719 40.488281 99.976562 40.488281 C 102.984375 40.488281 106.730469 39.621094 110.316406 37.457031 L 108.3125 33.664062 C 106.574219 34.90625 103.824219 35.832031 101.242188 35.832031 C 96.863281 35.832031 93.386719 32.035156 93.542969 26.9375 Z M 93.648438 23.035156 C 93.59375 19.410156 95.386719 16.101562 99.398438 16.101562 C 102.878906 16.101562 104.304688 18.917969 104.039062 23.035156 L 93.648438 23.035156 "/>
<path style=" stroke:none;fill-rule:nonzero;fill:rgb(6.045532%,22.052002%,42.024231%);fill-opacity:1;" d="M 120.988281 17.507812 L 121.097656 17.507812 L 122.519531 15.394531 C 123.359375 14.253906 124.894531 12.089844 127.054688 12.089844 C 128.640625 12.089844 130.324219 12.957031 131.804688 14.527344 L 129.167969 19.515625 C 128.007812 18.917969 127.269531 18.59375 125.84375 18.59375 C 123.417969 18.59375 121.039062 20.597656 121.039062 26.453125 L 121.039062 39.839844 L 114.023438 39.839844 L 114.023438 12.738281 L 120.988281 12.738281 L 120.988281 17.507812 "/>
<path style=" stroke:none;fill-rule:nonzero;fill:rgb(6.045532%,22.052002%,42.024231%);fill-opacity:1;" d="M 133.367188 4.613281 C 133.367188 2.546875 135.054688 0.4375 137.429688 0.4375 C 139.855469 0.4375 141.757812 2.496094 141.757812 4.613281 C 141.757812 6.941406 140.117188 9.160156 137.53125 9.160156 C 135.054688 9.160156 133.367188 6.941406 133.367188 4.613281 Z M 141.066406 12.738281 L 141.066406 39.839844 L 134.054688 39.839844 L 134.054688 12.738281 L 141.066406 12.738281 "/>
<path style=" stroke:none;fill-rule:nonzero;fill:rgb(6.045532%,22.052002%,42.024231%);fill-opacity:1;" d="M 160.019531 35.882812 C 160.019531 37.347656 160.175781 38.917969 160.699219 39.839844 L 168.144531 39.839844 C 167.296875 37.941406 167.03125 35.394531 167.03125 33.226562 L 167.03125 22.171875 C 167.03125 13.714844 161.074219 12.089844 156.21875 12.089844 C 152.578125 12.089844 149.363281 13.011719 146.089844 15.777344 L 148.355469 19.191406 C 150.203125 17.5625 152.316406 16.425781 155.324219 16.425781 C 157.59375 16.425781 159.753906 18 160.121094 20.492188 L 153.894531 22.386719 C 147.773438 24.175781 144.136719 27.101562 144.136719 32.253906 C 144.136719 37.238281 147.5625 40.488281 151.679688 40.488281 C 154.105469 40.488281 156.484375 38.8125 158.4375 37.238281 Z M 160.121094 24.121094 C 160.648438 32.085938 157.015625 35.667969 154.21875 35.667969 C 152.527344 35.667969 151.046875 34.042969 151.046875 31.65625 C 151.046875 28.566406 152.789062 26.507812 156.21875 25.421875 L 160.121094 24.121094 "/>
<path style=" stroke:none;fill-rule:nonzero;fill:rgb(6.045532%,22.052002%,42.024231%);fill-opacity:1;" d="M 171.414062 39.839844 L 178.425781 39.839844 L 178.425781 0 L 171.414062 0 Z M 171.414062 39.839844 "/>
<path style=" stroke:none;fill-rule:nonzero;fill:rgb(6.045532%,22.052002%,42.024231%);fill-opacity:1;" d="M 224.734375 8.78125 C 222.933594 7.804688 219.929688 6.667969 217.078125 6.667969 C 209.484375 6.667969 204 12.144531 204 20.761719 C 204 29.761719 210.066406 35.070312 217.289062 35.070312 C 220.140625 35.070312 222.777344 34.257812 224.734375 33.171875 L 226.789062 37.890625 C 224.523438 39.246094 220.566406 40.488281 216.976562 40.488281 C 204.152344 40.488281 196.082031 31.816406 196.082031 20.65625 C 196.082031 10.300781 204.105469 1.25 217.078125 1.25 C 220.933594 1.25 224.523438 2.660156 227.050781 4.175781 L 224.734375 8.78125 "/>
<path style=" stroke:none;fill-rule:nonzero;fill:rgb(6.045532%,22.052002%,42.024231%);fill-opacity:1;" d="M 240.710938 40.488281 C 249 40.488281 254.582031 34.367188 254.582031 25.964844 C 254.582031 17.183594 247.835938 12.089844 240.710938 12.089844 C 233.640625 12.089844 226.890625 17.183594 226.890625 25.964844 C 226.890625 34.367188 232.480469 40.488281 240.710938 40.488281 Z M 240.710938 36.480469 C 235.699219 36.480469 234.328125 30.734375 234.328125 25.964844 C 234.328125 21.46875 235.910156 16.101562 240.710938 16.101562 C 245.617188 16.101562 247.144531 21.46875 247.144531 25.964844 C 247.144531 30.734375 245.828125 36.480469 240.710938 36.480469 "/>
<path style=" stroke:none;fill-rule:nonzero;fill:rgb(6.045532%,22.052002%,42.024231%);fill-opacity:1;" d="M 257.609375 39.839844 L 264.628906 39.839844 L 264.628906 0 L 257.609375 0 Z M 257.609375 39.839844 "/>
<path style=" stroke:none;fill-rule:nonzero;fill:rgb(6.045532%,22.052002%,42.024231%);fill-opacity:1;" d="M 269.050781 39.839844 L 276.066406 39.839844 L 276.066406 0 L 269.050781 0 Z M 269.050781 39.839844 "/>
<path style=" stroke:none;fill-rule:nonzero;fill:rgb(6.045532%,22.052002%,42.024231%);fill-opacity:1;" d="M 303.566406 26.9375 C 304.097656 18.863281 300.667969 12.089844 292.4375 12.089844 C 284.894531 12.089844 278.976562 17.402344 278.976562 25.75 C 278.976562 34.695312 284.941406 40.488281 292.910156 40.488281 C 295.914062 40.488281 299.660156 39.621094 303.253906 37.457031 L 301.246094 33.664062 C 299.507812 34.90625 296.761719 35.832031 294.175781 35.832031 C 289.800781 35.832031 286.3125 32.035156 286.472656 26.9375 Z M 286.582031 23.035156 C 286.523438 19.410156 288.320312 16.101562 292.328125 16.101562 C 295.8125 16.101562 297.234375 18.917969 296.972656 23.035156 L 286.582031 23.035156 "/>
<g clip-path="url(#clip1)" clip-rule="nonzero">
<path style=" stroke:none;fill-rule:nonzero;fill:rgb(6.045532%,22.052002%,42.024231%);fill-opacity:1;" d="M 360.871094 26.9375 C 361.398438 18.863281 357.972656 12.089844 349.742188 12.089844 C 342.195312 12.089844 336.285156 17.402344 336.285156 25.75 C 336.285156 34.695312 342.246094 40.488281 350.214844 40.488281 C 353.222656 40.488281 356.96875 39.621094 360.554688 37.457031 L 358.550781 33.664062 C 356.808594 34.90625 354.066406 35.832031 351.480469 35.832031 C 347.101562 35.832031 343.625 32.035156 343.777344 26.9375 Z M 343.882812 23.035156 C 343.832031 19.410156 345.625 16.101562 349.636719 16.101562 C 353.113281 16.101562 354.542969 18.917969 354.277344 23.035156 L 343.882812 23.035156 "/>
</g>
<path style=" stroke:none;fill-rule:nonzero;fill:rgb(6.045532%,22.052002%,42.024231%);fill-opacity:1;" d="M 333.371094 12.738281 L 326.351562 12.738281 L 326.351562 16.046875 L 326.25 16.046875 C 324.773438 13.605469 321.605469 12.089844 318.386719 12.089844 C 311.210938 12.089844 306.144531 18.917969 306.144531 25.964844 C 306.144531 34.636719 310.738281 40.488281 317.753906 40.488281 C 321.765625 40.488281 324.507812 38.214844 326.25 35.9375 L 326.351562 35.9375 L 326.351562 39.515625 C 326.351562 45.800781 322.765625 48.730469 318.121094 48.730469 C 314.535156 48.730469 311.527344 48.023438 308.945312 46.398438 L 307.570312 50.84375 C 310.683594 52.46875 314.695312 53.394531 318.648438 53.394531 C 326.511719 53.394531 333.371094 49.433594 333.371094 37.402344 Z M 319.96875 16.425781 C 324.191406 16.425781 326.351562 20.816406 326.351562 25.53125 C 326.351562 30.953125 324.347656 36.15625 319.648438 36.15625 C 315.589844 36.15625 313.585938 31.058594 313.585938 25.800781 C 313.585938 20.546875 315.433594 16.425781 319.96875 16.425781 "/>
<g clip-path="url(#clip2)" clip-rule="nonzero">
<path style=" stroke:none;fill-rule:nonzero;fill:rgb(41.55426%,48.881531%,67.5354%);fill-opacity:1;" d="M 0 56.105469 L 7.492188 56.105469 L 7.492188 88.945312 L 23.265625 88.945312 L 23.265625 94.042969 L 0 94.042969 L 0 56.105469 "/>
</g>
<g clip-path="url(#clip3)" clip-rule="nonzero">
<path style=" stroke:none;fill-rule:nonzero;fill:rgb(41.55426%,48.881531%,67.5354%);fill-opacity:1;" d="M 64.433594 70.140625 C 66.9375 67.539062 70.429688 66.289062 73.929688 66.289062 C 80.425781 66.289062 83.535156 69.761719 83.535156 76.589844 L 83.535156 94.042969 L 76.484375 94.042969 L 76.484375 77.402344 C 76.484375 73.609375 74.761719 71.117188 70.929688 71.117188 C 67.320312 71.117188 64.488281 73.445312 64.488281 77.890625 L 64.488281 94.042969 L 57.4375 94.042969 L 57.4375 66.945312 L 64.433594 66.945312 L 64.433594 70.140625 "/>
</g>
<g clip-path="url(#clip4)" clip-rule="nonzero">
<path style=" stroke:none;fill-rule:nonzero;fill:rgb(41.55426%,48.881531%,67.5354%);fill-opacity:1;" d="M 108.515625 94.042969 L 115.566406 94.042969 L 115.566406 54.207031 L 108.515625 54.207031 L 108.515625 70.089844 L 108.402344 70.089844 C 106.738281 67.699219 103.519531 66.289062 99.910156 66.289062 C 92.46875 66.289062 87.25 73.121094 87.25 80.167969 C 87.25 88.835938 92.078125 94.691406 99.355469 94.691406 C 103.6875 94.691406 106.574219 92.414062 108.402344 90.136719 L 108.515625 90.136719 Z M 101.796875 70.632812 C 106.242188 70.632812 108.515625 75.019531 108.515625 79.734375 C 108.515625 85.15625 106.410156 90.355469 101.464844 90.355469 C 97.191406 90.355469 95.082031 85.261719 95.082031 80.003906 C 95.082031 74.746094 97.027344 70.632812 101.796875 70.632812 "/>
</g>
<g clip-path="url(#clip5)" clip-rule="nonzero">
<path style=" stroke:none;fill-rule:nonzero;fill:rgb(41.55426%,48.881531%,67.5354%);fill-opacity:1;" d="M 133.894531 94.691406 C 142.609375 94.691406 148.492188 88.566406 148.492188 80.167969 C 148.492188 71.390625 141.390625 66.289062 133.894531 66.289062 C 126.449219 66.289062 119.34375 71.390625 119.34375 80.167969 C 119.34375 88.566406 125.230469 94.691406 133.894531 94.691406 Z M 133.894531 90.679688 C 128.621094 90.679688 127.171875 84.933594 127.171875 80.167969 C 127.171875 75.667969 128.835938 70.304688 133.894531 70.304688 C 139.058594 70.304688 140.664062 75.667969 140.664062 80.167969 C 140.664062 84.933594 139.28125 90.679688 133.894531 90.679688 "/>
</g>
<g clip-path="url(#clip6)" clip-rule="nonzero">
<path style=" stroke:none;fill-rule:nonzero;fill:rgb(41.55426%,48.881531%,67.5354%);fill-opacity:1;" d="M 159.324219 70.140625 C 161.824219 67.539062 165.320312 66.289062 168.816406 66.289062 C 175.3125 66.289062 178.425781 69.761719 178.425781 76.589844 L 178.425781 94.042969 L 171.375 94.042969 L 171.375 77.402344 C 171.375 73.609375 169.652344 71.117188 165.820312 71.117188 C 162.214844 71.117188 159.378906 73.445312 159.378906 77.890625 L 159.378906 94.042969 L 152.328125 94.042969 L 152.328125 66.945312 L 159.324219 66.945312 L 159.324219 70.140625 "/>
</g>
<g clip-path="url(#clip7)" clip-rule="nonzero">
<path style=" stroke:none;fill-rule:nonzero;fill:rgb(41.55426%,48.881531%,67.5354%);fill-opacity:1;" d="M 38.882812 94.691406 C 47.597656 94.691406 53.484375 88.566406 53.484375 80.167969 C 53.484375 71.390625 46.378906 66.289062 38.882812 66.289062 C 31.441406 66.289062 24.335938 71.390625 24.335938 80.167969 C 24.335938 88.566406 30.21875 94.691406 38.882812 94.691406 Z M 38.882812 90.679688 C 33.601562 90.679688 32.164062 84.933594 32.164062 80.167969 C 32.164062 75.667969 33.828125 70.304688 38.882812 70.304688 C 44.046875 70.304688 45.65625 75.667969 45.65625 80.167969 C 45.65625 84.933594 44.265625 90.679688 38.882812 90.679688 "/>
</g>
</g>
</svg>
